<?xml version="1.0" encoding="UTF-8" standalone="no"?>
<!-- Created with Inkscape (http://www.inkscape.org/) -->

<svg
   width="42.196507mm"
   height="38.063271mm"
   viewBox="0 0 42.196507 38.063271"
   version="1.1"
   id="svg1"
   xml:space="preserve"
   xmlns="http://www.w3.org/2000/svg"
   xmlnsSvg="http://www.w3.org/2000/svg"><defs
     id="defs1" /><g
     id="layer1"
     transform="translate(-14.899741,-167.43557)"><g
       id="g3"
       style="fill:#ffffff;fill-opacity:1"><path
         style="fill:#ffffff;fill-opacity:1;stroke-width:0.264583"
         d="m 25.074071,194.91756 -7.755101,0.0339 c -1.251969,-0.19034 -2.159896,-0.81856 -2.419229,-2.27226 l 0.01131,-8.85167 c 0.231787,-0.79539 0.281546,-1.61878 2.023561,-2.18183 h 9.213421 c 0.994562,0.23028 1.840637,0.82095 2.034866,2.19313 v 7.94729 c 0.09432,1.4187 0.328835,2.59207 3.052297,2.87142 l 4.024514,-0.0113 c 1.617632,-0.0193 3.008111,-0.56831 3.244482,-2.41924 v -3.08621 c -0.02793,-1.40855 -0.623993,-1.75679 -1.673114,-1.8766 l -4.261912,-0.0226 c -0.811773,-0.17202 -1.415593,-0.44762 -1.752247,-1.71834 l 0.0113,-4.66889 c 0.151619,-0.8984 0.608026,-1.55296 1.661806,-1.72963 l 3.549711,0.0113 c 1.076596,-0.13415 2.063633,-0.44741 2.249659,-2.3627 v -6.81679 c 0.197711,-1.35149 0.997089,-2.22439 2.520971,-2.52097 l 6.545488,0.0226 c 1.67065,0.21001 2.238817,1.2775 2.566191,2.53228 v 6.50026 c -0.188472,1.49927 -1.066596,2.32531 -2.520974,2.58881 l -6.093292,0.0452 c -2.102015,0.0207 -2.241696,1.3315 -2.385315,2.40793 l 0.02262,2.78098 c 0.24069,0.97515 0.03954,2.06231 2.317488,2.52097 l 3.798416,-0.0113 c 0.950047,0.14616 1.559283,0.6305 1.695722,1.74094 l -5e-6,4.57845 c -0.135711,1.29401 -0.928065,1.65777 -1.774854,1.94442 l -3.753197,-0.0113 c -2.395994,0.42471 -2.322011,1.71725 -2.577497,2.89403 v 5.05325 c -0.296442,1.54689 -1.261643,2.25305 -2.611413,2.47575 l -5.697625,-0.0226 c -1.781468,-0.18391 -2.127847,-1.15494 -2.532277,-2.15922 l 0.0113,-5.32457 c -0.265469,-1.75182 -0.489012,-2.82386 -2.747071,-3.07491 z"
         id="path1" /><path
         style="fill:#ffffff;fill-opacity:1;stroke-width:0.264583"
         d="m 43.389851,203.67969 3.085571,0.008 c 0.523989,-0.15308 0.733307,-0.47872 0.791377,-0.88731 l -0.008,-2.85375 c -0.02483,-0.64739 -0.348563,-0.78793 -0.715436,-0.85533 l -3.234637,-0.002 c -0.633115,0.0546 -0.702207,0.48524 -0.712205,0.95526 v 2.82055 c 0.06617,0.46404 0.276375,0.71071 0.79333,0.81458 z"
         id="path2" /><path
         style="fill:#ffffff;fill-opacity:1;stroke-width:0.264583"
         d="m 50.634248,195.00093 0.0013,4.16299 c 0.149377,0.55443 0.318065,1.09458 1.146027,1.14744 h 4.235064 c 0.757295,-0.19681 0.979265,-0.61262 1.079608,-1.07819 l -0.0013,-4.30431 c -0.182002,-0.66786 -0.576423,-1.00892 -1.150262,-1.07396 l -4.232241,-10e-4 c -0.748551,0.16239 -1.020669,0.59406 -1.078196,1.14703 z"
         id="path3" /></g></g></svg>
