<svg width="47" height="46" viewBox="0 0 47 46" fill="none" xmlns="http://www.w3.org/2000/svg">
<path d="M32.5 11.875H6.5C4.7125 11.875 3.25 13.3375 3.25 15.125V33C3.25 34.7875 4.7125 36.25 6.5 36.25H11.375L9.75 37.875V41.125H29.25V37.875L27.625 36.25H32.5C34.2875 36.25 35.75 34.7875 35.75 33V15.125C35.75 13.3375 34.2875 11.875 32.5 11.875ZM32.5 33H6.5V15.125H32.5V33Z" fill="currentcolor"/>
<path d="M40.5 4.875H14.5C12.7125 4.875 11.25 6.3375 11.25 8.125V26C11.25 27.7875 12.7125 29.25 14.5 29.25H19.375L17.75 30.875V34.125H37.25V30.875L35.625 29.25H40.5C42.2875 29.25 43.75 27.7875 43.75 26V8.125C43.75 6.3375 42.2875 4.875 40.5 4.875ZM40.5 26H14.5V8.125H40.5V26Z" fill="currentcolor"/>
</svg>
